<?xml version="1.0" encoding="utf-8"?>
<!-- Generator: Adobe Illustrator 22.1.0, SVG Export Plug-In . SVG Version: 6.00 Build 0)  -->
<svg version="1.1" id="Layer_1" xmlns="http://www.w3.org/2000/svg" xmlns:xlink="http://www.w3.org/1999/xlink" x="0px" y="0px"
	 viewBox="0 0 56.7 56.7" style="enable-background:new 0 0 56.7 56.7;" xml:space="preserve">
<style type="text/css">
	.st0{fill:none;stroke:#2A4B8E;stroke-width:4.0443;stroke-miterlimit:10;}
</style>
<g>
	<path class="st0" d="M38.5,54.2H18.2c-8.6,0-15.7-7.1-15.7-15.7V18.2c0-8.6,7.1-15.7,15.7-15.7h20.3c8.6,0,15.7,7.1,15.7,15.7v20.3
		C54.2,47.1,47.1,54.2,38.5,54.2z"/>
	<path class="st0" d="M28.3,40.6L28.3,40.6c-6.7,0-12.2-5.5-12.2-12.2v0c0-6.7,5.5-12.2,12.2-12.2h0c6.7,0,12.2,5.5,12.2,12.2v0
		C40.6,35.1,35.1,40.6,28.3,40.6z"/>
	<path class="st0" d="M43.3,14.6L43.3,14.6c-0.8,0-1.5-0.7-1.5-1.5v0c0-0.8,0.7-1.5,1.5-1.5h0c0.8,0,1.5,0.7,1.5,1.5v0
		C44.7,14,44.1,14.6,43.3,14.6z"/>
</g>
</svg>
